<?xml version="1.0" encoding="UTF-8"?>
<svg xmlns="http://www.w3.org/2000/svg" xmlns:xlink="http://www.w3.org/1999/xlink" id="Layer_1" data-name="Layer 1" viewBox="0 0 109.43431 89.99976"><defs><style>.cls-1{fill:none;}.cls-2{fill:#386c9e;}.cls-3{clip-path:url(#clip-path);}.cls-4{fill:#cf8a00;}</style><clipPath id="clip-path" transform="translate(-0.44553 0.00024)"><rect class="cls-1" x="0.44553" width="109.43469" height="90"/></clipPath></defs><title>tk_logo</title><polygon class="cls-2" points="0 44.758 0 48.726 5.349 48.726 5.349 65.223 10.463 65.223 10.463 48.726 15.81 48.726 15.81 44.758 0 44.758"/><polygon class="cls-2" points="18.44 65.223 18.44 44.758 33.502 44.758 33.502 48.726 23.556 48.726 23.556 52.464 32.841 52.464 32.841 56.427 23.556 56.427 23.556 61.257 34.367 61.257 34.367 65.223 18.44 65.223"/><polygon class="cls-2" points="37.303 44.758 42.418 44.758 42.418 52.922 49.752 44.758 56.536 44.758 49.091 52.519 56.764 65.223 51.073 65.223 45.497 56.141 42.418 59.273 42.418 65.223 37.303 65.223 37.303 44.758"/><polygon class="cls-2" points="58.845 44.758 64.02 44.758 71.464 57.837 71.523 57.837 71.523 44.758 76.18 44.758 76.18 65.223 71.062 65.223 63.559 52.346 63.502 52.346 63.502 65.223 58.845 65.223 58.845 44.758"/><rect class="cls-2" x="80.53409" y="44.75772" width="5.11841" height="20.46494"/><polygon class="cls-2" points="102.423 44.761 95.095 52.923 95.095 44.761 89.978 44.761 89.978 65.22 95.095 65.22 95.095 59.271 98.168 56.14 103.743 65.22 109.434 65.22 101.763 52.52 109.203 44.761 102.423 44.761"/><g class="cls-3"><path class="cls-4" d="M16.87963,74.039a8.55017,8.55017,0,0,0-6.09595-2.65173,8.27417,8.27417,0,0,0,.05269,16.544,8.74459,8.74459,0,0,0,6.04326-2.65215V88.037a10.29413,10.29413,0,0,1-5.9636,1.96215,10.34022,10.34022,0,1,1,0-20.67987,9.65,9.65,0,0,1,5.9636,1.96049Z" transform="translate(-0.44553 0.00024)"/><path class="cls-4" d="M40.47723,79.68552A10.41953,10.41953,0,1,1,30.057,69.31965,10.36509,10.36509,0,0,1,40.47723,79.68552M21.86531,79.659a8.19148,8.19148,0,1,0,8.1917-8.2726,8.26579,8.26579,0,0,0-8.1917,8.2726" transform="translate(-0.44553 0.00024)"/><polygon class="cls-4" points="45.279 87.585 50.793 87.585 50.793 89.653 43.051 89.653 43.051 69.665 45.279 69.665 45.279 87.585"/><polygon class="cls-4" points="55.22 87.585 60.737 87.585 60.737 89.653 52.993 89.653 52.993 69.665 55.22 69.665 55.22 87.585"/><polygon class="cls-4" points="62.934 69.666 73.3 69.666 73.3 71.732 65.161 71.732 65.161 77.672 73.063 77.672 73.063 79.74 65.161 79.74 65.161 87.586 73.3 87.586 73.3 89.654 62.934 89.654 62.934 69.666"/><path class="cls-4" d="M96.12142,79.60589c.05392,2.70194-.23859,4.9317-2.06795,7.0511a9.86888,9.86888,0,0,1-7.3959,3.34215A10.34058,10.34058,0,1,1,95.248,73.64229l-1.61817,1.50989a8.13052,8.13052,0,0,0-6.866-3.7662,8.29658,8.29658,0,0,0-8.16556,8.35352,8.05745,8.05745,0,0,0,2.331,5.64577,8.41213,8.41213,0,0,0,5.67565,2.54634c3.472,0,7.13035-2.54634,7.13035-6.25819H87.79652V79.60589Z" transform="translate(-0.44553 0.00024)"/><polygon class="cls-4" points="98.831 69.666 109.196 69.666 109.196 71.732 101.057 71.732 101.057 77.672 108.958 77.672 108.958 79.74 101.057 79.74 101.057 87.586 109.196 87.586 109.196 89.654 98.831 89.654 98.831 69.666"/><rect class="cls-4" x="44.04507" y="33.88442" width="21.64039" height="6.32333"/><path class="cls-2" d="M59.58473,4.27216a4.27386,4.27386,0,1,1-4.27531-4.2724,4.27385,4.27385,0,0,1,4.27531,4.2724" transform="translate(-0.44553 0.00024)"/><path class="cls-2" d="M65.72665,17.84807A13.77163,13.77163,0,0,0,55.31888,22.579V22.564A13.8248,13.8248,0,0,0,33.9042,40.03118h7.16312a9.21631,9.21631,0,0,1,3.82885-17.59994,9.09035,9.09035,0,0,1,8.20291,5.013c1.21321,2.185,1.89741,3.64172,2.2086,4.34749v.0444c.30828-.69706.99455-2.16379,2.21856-4.36991a9.085,9.085,0,0,1,8.20041-5.00845,9.21576,9.21576,0,0,1,3.833,17.59827h7.15981a13.82312,13.82312,0,0,0-10.9928-22.208" transform="translate(-0.44553 0.00024)"/><path class="cls-2" d="M35.60536,17.33062a4.27364,4.27364,0,1,1-4.27364-4.27529,4.271,4.271,0,0,1,4.27364,4.27529" transform="translate(-0.44553 0.00024)"/><path class="cls-2" d="M83.63189,17.33062A4.27531,4.27531,0,1,1,79.357,13.05533a4.27235,4.27235,0,0,1,4.27489,4.27529" transform="translate(-0.44553 0.00024)"/><path class="cls-2" d="M66.09464,20.60137a9.15125,9.15125,0,0,0-2.16379.25642,9.21441,9.21441,0,0,1-4.06868,11.28035h6.71211a13.73591,13.73591,0,0,0,2.56294-8.01454,13.98625,13.98625,0,0,0-.35682-3.12474,9.23041,9.23041,0,0,0-2.68576-.39749" transform="translate(-0.44553 0.00024)"/><path class="cls-2" d="M44.72182,15.99082a13.8143,13.8143,0,0,1,4.891.89374,9.20652,9.20652,0,0,1,11.46041.04729,13.80789,13.80789,0,0,1,5.02133-.941c.13692,0,.26762.0083.40288.01246a13.81835,13.81835,0,0,0-22.37521.00414c.19957-.0083.4-.0166.59955-.0166" transform="translate(-0.44553 0.00024)"/><path class="cls-2" d="M46.09512,24.12409a9.22535,9.22535,0,0,1,.61781-3.32016,9.64147,9.64147,0,0,0-1.99119-.20206,9.21888,9.21888,0,0,0-2.89072.463A13.79571,13.79571,0,0,0,44.05083,32.139h6.71252a9.21441,9.21441,0,0,1-4.66823-8.015" transform="translate(-0.44553 0.00024)"/></g></svg>