<?xml version="1.0"?>
<svg xmlns="http://www.w3.org/2000/svg" id="Teknikcollege-Grey_-_No_text" width="38.484" height="27.353" viewBox="0 0 38.484 27.353" fill="#ffffff">
  <g id="g3387" transform="translate(0 0)">
    <path id="path72" d="M338.87-561.4h12.622v3.688H338.87Z" transform="translate(-325.964 585.067)" fill="#ffffff"/>
    <g id="g74" transform="translate(16.725 0)">
      <path id="path76" d="M-22.691-11.346a2.493,2.493,0,0,1-2.493,2.494,2.494,2.494,0,0,1-2.493-2.494,2.494,2.494,0,0,1,2.493-2.493,2.493,2.493,0,0,1,2.493,2.493" transform="translate(27.676 13.839)" fill="#ffffff"/>
    </g>
    <g id="g78" transform="translate(0 9.226)">
      <path id="path80" d="M-22.69-11.342a2.492,2.492,0,0,1-2.493,2.493,2.493,2.493,0,0,1-2.493-2.493,2.492,2.492,0,0,1,2.493-2.492,2.491,2.491,0,0,1,2.493,2.492" transform="translate(27.675 13.834)" fill="#ffffff"/>
    </g>
    <g id="g82" transform="translate(33.497 9.225)">
      <path id="path84" d="M-22.7-11.346a2.493,2.493,0,0,1-2.495,2.493,2.493,2.493,0,0,1-2.493-2.493,2.493,2.493,0,0,1,2.493-2.493A2.493,2.493,0,0,1-22.7-11.346" transform="translate(27.685 13.839)" fill="#ffffff"/>
    </g>
    <g id="g86" transform="translate(12.691 7.204)">
      <path id="path88" d="M-1.591-15.117a8.041,8.041,0,0,1,2.853.521,5.344,5.344,0,0,1,3.324-1.153,5.348,5.348,0,0,1,3.36,1.18,8.05,8.05,0,0,1,2.928-.548c.08,0,.157,0,.236.006a8.051,8.051,0,0,0-6.524-3.328,8.055,8.055,0,0,0-6.527,3.33c.116,0,.234-.009.349-.009" transform="translate(1.94 18.439)" fill="#ffffff"/>
    </g>
    <g id="g90" transform="translate(2.34 14.297)">
      <path id="path92" d="M-88.075-.065A10.462,10.462,0,0,0-95.324,2.7v-.01a10.484,10.484,0,0,0-7.259-2.765c-5.318,0-9.628,3.611-9.628,8.064a7.231,7.231,0,0,0,1.973,4.889h4.988A5.417,5.417,0,0,1-109,7.985a5.491,5.491,0,0,1,4.076-5.005c-.019.2-.032.409-.032.617a7.176,7.176,0,0,0,1.786,4.674H-98.5A5.3,5.3,0,0,1-101.748,3.6a4.512,4.512,0,0,1,.1-.936A6.43,6.43,0,0,1-96.87,5.532c.845,1.275,1.322,2.125,1.539,2.536V8.1c.214-.407.692-1.262,1.545-2.549A6.428,6.428,0,0,1-89,2.676a4.541,4.541,0,0,1,.095.921,5.3,5.3,0,0,1-3.251,4.674h4.676A7.166,7.166,0,0,0-85.7,3.6c0-.2-.013-.4-.03-.6a5.49,5.49,0,0,1,4.076,5,5.418,5.418,0,0,1-3.752,4.888h4.987A7.228,7.228,0,0,0-78.446,8c0-4.453-4.31-8.065-9.629-8.065" transform="translate(112.211 0.079)" fill="#ffffff"/>
    </g>
  </g>
</svg>
