<?xml version="1.0" encoding="UTF-8" standalone="no"?>
<svg
   xmlns:dc="http://purl.org/dc/elements/1.1/"
   xmlns:cc="http://creativecommons.org/ns#"
   xmlns:rdf="http://www.w3.org/1999/02/22-rdf-syntax-ns#"
   xmlns:svg="http://www.w3.org/2000/svg"
   xmlns="http://www.w3.org/2000/svg"
   viewBox="0 0 453.54266 453.54266"
   height="453.54266"
   width="453.54266"
   xml:space="preserve"
   id="svg2"
   version="1.1"><metadata
     id="metadata8"><rdf:RDF><cc:Work
         rdf:about=""><dc:format>image/svg+xml</dc:format><dc:type
           rdf:resource="http://purl.org/dc/dcmitype/StillImage" /></cc:Work></rdf:RDF></metadata><defs
     id="defs6"><clipPath
       id="clipPath18"
       clipPathUnits="userSpaceOnUse"><path
         id="path16"
         d="M 0,340.157 H 340.157 V 0 H 0 Z" /></clipPath><clipPath
       id="clipPath38"
       clipPathUnits="userSpaceOnUse"><path
         id="path36"
         d="M 0,340.157 H 340.157 V 0 H 0 Z" /></clipPath><clipPath
       id="clipPath206"
       clipPathUnits="userSpaceOnUse"><path
         id="path204"
         d="M 0,340.157 H 340.157 V 0 H 0 Z" /></clipPath><clipPath
       id="clipPath238"
       clipPathUnits="userSpaceOnUse"><path
         id="path236"
         d="M 0,340.157 H 340.157 V 0 H 0 Z" /></clipPath></defs><g
     transform="matrix(1.3333333,0,0,-1.3333333,0,453.54267)"
     id="g10"><g
       id="g12"><g
         clip-path="url(#clipPath18)"
         id="g14"><g
           transform="translate(133.8543,87.3888)"
           id="g20"><path
             id="path22"
             style="fill:#3e3e3e;fill-opacity:1;fill-rule:nonzero;stroke:none"
             d="M 0,0 C 1.155,-0.59 2.323,-1.154 3.504,-1.689 L 8.019,3.469 C 9.053,3.033 10.097,2.623 11.15,2.235 l -0.207,-6.852 c 1.228,-0.411 2.463,-0.795 3.711,-1.148 l 3.699,5.769 c 1.086,-0.276 2.183,-0.526 3.282,-0.751 l 0.692,-5.749 h 4.694 l 2.064,4.618 c 1.115,-0.109 2.236,-0.195 3.36,-0.254 l 1.209,-4.364 h 5.117 l 1.206,4.368 c 1.119,0.061 2.238,0.143 3.357,0.252 l 2.069,-4.62 h 4.698 l 0.691,5.754 c 1.092,0.225 2.184,0.473 3.279,0.749 l 3.695,-5.772 c 0.622,0.174 1.244,0.358 1.865,0.55 0.622,0.191 1.238,0.39 1.853,0.595 l -0.196,6.851 c 1.057,0.387 2.101,0.798 3.131,1.23 l 4.508,-5.165 c 1.186,0.532 2.354,1.093 3.501,1.68 L 71.779,3.59 62.57,12.637 C 54.539,8.981 45.624,6.929 36.222,6.929 26.821,6.929 17.906,8.981 9.874,12.637 L 0.647,3.572 Z" /></g><g
           transform="translate(97.1595,156.424)"
           id="g24"><path
             id="path26"
             style="fill:#3e3e3e;fill-opacity:1;fill-rule:nonzero;stroke:none"
             d="m 0,0 -6.451,-2.32 c 0.067,-1.288 0.162,-2.577 0.293,-3.868 l 6.729,-1.326 c 0.142,-1.107 0.308,-2.217 0.501,-3.327 L -4.956,-14.1 c 0.257,-1.263 0.546,-2.527 0.866,-3.788 l 6.85,-0.31 c 0.151,-0.538 0.311,-1.075 0.475,-1.613 0.167,-0.537 0.34,-1.069 0.515,-1.601 l -5.486,-4.112 c 0.446,-1.225 0.919,-2.431 1.419,-3.62 l 6.817,0.705 c 0.464,-1.028 0.952,-2.04 1.458,-3.036 l -4.813,-4.883 c 0.619,-1.14 1.265,-2.26 1.936,-3.36 l 6.635,1.714 c 0.613,-0.945 1.248,-1.873 1.898,-2.783 l -4.028,-5.552 c 0.784,-1.031 1.59,-2.043 2.421,-3.031 l 6.304,2.692 c 0.748,-0.842 1.51,-1.664 2.293,-2.467 l -3.148,-6.088 c 0.892,-0.871 1.81,-1.716 2.741,-2.54 l 38.681,39.957 -5.586,5.317 -28.497,-27.66 c -8.833,10.153 -14.502,23.12 -15.486,37.385 l 35.003,0.521 c -0.386,0.601 -0.764,1.221 -1.126,1.874 -0.801,1.474 -1.708,3.561 -2.185,6.027 L 9.309,6.121 c 0.984,14.265 6.653,27.232 15.486,37.385 L 45.813,23.105 c 1.639,2.309 3.434,4.299 5.226,6.135 L 31.086,49.796 c 1.871,1.628 3.845,3.138 5.897,4.542 -2.307,2.128 -4.628,4.427 -6.844,7.232 -1.114,1.458 -2.227,3.041 -3.183,4.923 -0.127,-0.09 -0.26,-0.173 -0.387,-0.264 l 2.21,-6.488 c -0.898,-0.682 -1.775,-1.385 -2.634,-2.103 l -5.838,3.599 c -0.97,-0.858 -1.916,-1.739 -2.842,-2.64 l 3.162,-6.089 C 19.843,51.702 19.079,50.88 18.335,50.04 l -6.306,2.684 C 11.198,51.73 10.392,50.717 9.611,49.686 l 4.03,-5.548 C 12.988,43.226 12.355,42.299 11.747,41.359 L 5.112,43.077 C 4.437,41.97 3.788,40.847 3.169,39.709 L 7.974,34.823 C 7.463,33.825 6.979,32.814 6.515,31.793 l -6.817,0.715 C -0.806,31.315 -1.281,30.109 -1.728,28.892 L 3.75,24.772 C 3.396,23.709 3.064,22.638 2.756,21.558 L -4.093,21.252 C -4.412,20 -4.703,18.739 -4.961,17.469 L 1.07,14.212 C 0.875,13.107 0.706,11.997 0.566,10.88 L -6.162,9.554 C -6.289,8.271 -6.389,6.982 -6.453,5.688 L 0,3.369 C -0.024,2.248 -0.027,1.126 0,0" /></g><g
           transform="translate(190.8362,184.5084)"
           id="g28"><path
             id="path30"
             style="fill:#3e3e3e;fill-opacity:1;fill-rule:nonzero;stroke:none"
             d="M 0,0 C 1.749,-1.868 3.464,-3.917 5.001,-6.285 L 27.363,15.42 C 36.196,5.268 41.864,-7.699 42.849,-21.963 L 8.93,-22.468 c -0.476,-2.447 -1.378,-4.521 -2.168,-5.977 -0.361,-0.648 -0.735,-1.263 -1.117,-1.859 l 37.204,-0.555 c -0.985,-14.264 -6.654,-27.23 -15.486,-37.384 l -29.597,28.729 -0.006,-0.006 -0.3,-0.299 -5.243,-4.985 39.751,-41.062 c 0.928,0.825 1.839,1.667 2.722,2.533 l -3.158,6.085 c 0.782,0.807 1.546,1.629 2.29,2.47 l 6.307,-2.685 c 0.83,0.995 1.636,2.008 2.416,3.04 l -4.028,5.547 c 0.652,0.912 1.285,1.837 1.893,2.78 l 6.636,-1.719 c 0.675,1.106 1.323,2.23 1.942,3.367 l -4.807,4.887 c 0.51,0.998 1,2.009 1.464,3.03 l 6.814,-0.716 c 0.505,1.192 0.978,2.4 1.424,3.617 l -5.476,4.119 c 0.355,1.063 0.686,2.136 0.992,3.215 l 6.853,0.306 c 0.317,1.252 0.608,2.514 0.866,3.782 l -6.029,3.259 c 0.193,1.105 0.362,2.215 0.502,3.331 l 6.728,1.326 c 0.129,1.285 0.227,2.574 0.291,3.867 l -6.453,2.32 c 0.025,1.119 0.027,2.241 0,3.369 l 6.449,2.319 c -0.064,1.288 -0.162,2.577 -0.291,3.868 l -6.728,1.324 c -0.143,1.108 -0.309,2.219 -0.502,3.33 l 6.028,3.257 c -0.257,1.263 -0.544,2.527 -0.868,3.788 l -6.848,0.311 c -0.153,0.537 -0.308,1.076 -0.475,1.612 -0.166,0.538 -0.337,1.07 -0.515,1.6 l 5.485,4.114 C 53.447,2.011 52.975,3.216 52.475,4.406 L 45.657,3.703 C 45.193,4.73 44.705,5.741 44.199,6.738 l 4.814,4.882 c -0.619,1.139 -1.266,2.26 -1.936,3.361 l -6.638,-1.715 c -0.61,0.945 -1.246,1.872 -1.898,2.784 l 4.03,5.551 c -0.784,1.031 -1.59,2.043 -2.418,3.03 l -6.306,-2.692 c -0.746,0.843 -1.51,1.666 -2.292,2.469 l 3.149,6.089 c -0.931,0.904 -1.879,1.782 -2.85,2.637 l -5.833,-3.605 c -0.862,0.72 -1.739,1.419 -2.631,2.097 l 2.207,6.488 c -0.132,0.095 -0.271,0.181 -0.404,0.275 -0.948,-1.861 -2.056,-3.436 -3.155,-4.874 -2.23,-2.826 -4.556,-5.131 -6.865,-7.261 2.054,-1.404 4.028,-2.915 5.9,-4.544 z" /></g></g></g><g
       id="g32"><g
         clip-path="url(#clipPath38)"
         id="g34"><g
           transform="translate(264.4602,239.651)"
           id="g40"><path
             id="path42"
             style="fill:#41781e;fill-opacity:1;fill-rule:nonzero;stroke:none"
             d="M 0,0 C 0.315,-4.733 6.453,-8.429 8.234,-10.754 11.171,-2.727 13.317,9.973 -3.449,11.701 0.631,9.445 -0.316,4.733 0,0" /></g><g
           transform="translate(284.0305,202.4699)"
           id="g44"><path
             id="path46"
             style="fill:#41781e;fill-opacity:1;fill-rule:nonzero;stroke:none"
             d="m 0,0 c -1.885,2.434 -3.993,9.666 -8.719,11.257 -4.724,1.592 -9.894,1.348 -12.567,6.166 C -21.935,-0.912 -8.604,0.622 0,0" /></g><g
           transform="translate(280.1975,216.5338)"
           id="g48"><path
             id="path50"
             style="fill:#41781e;fill-opacity:1;fill-rule:nonzero;stroke:none"
             d="M 0,0 C -0.782,-4.924 4.645,-10.147 5.927,-12.947 10.268,-5.314 17.478,5.88 0.936,13.814 3.963,9.211 0.783,4.925 0,0" /></g><g
           transform="translate(270.9388,227.4005)"
           id="g52"><path
             id="path54"
             style="fill:#41781e;fill-opacity:1;fill-rule:nonzero;stroke:none"
             d="m 0,0 c -2.263,1.858 -5.748,8.119 -10.467,8.596 -4.72,0.477 -9.494,0.358 -11.609,4.512 C -20.921,-3.708 -8.166,-1.604 0,0" /></g><g
           transform="translate(290.9446,175.6989)"
           id="g56"><path
             id="path58"
             style="fill:#41781e;fill-opacity:1;fill-rule:nonzero;stroke:none"
             d="m 0,0 c -1.363,2.927 -1.841,10.812 -6.305,13.536 -4.463,2.725 -10.297,2.579 -13.269,8.498 C -22.72,2.221 -8.449,2.934 0,0" /></g><g
           transform="translate(292.2942,138.7072)"
           id="g60"><path
             id="path62"
             style="fill:#41781e;fill-opacity:1;fill-rule:nonzero;stroke:none"
             d="m 0,0 c -4.271,-3.798 -3.253,-12.371 -4.15,-15.783 8.355,4.801 25.002,2.885 20.683,26.457 C 12.067,2.573 4.271,3.798 0,0" /></g><g
           transform="translate(252.2542,73.8517)"
           id="g64"><path
             id="path66"
             style="fill:#41781e;fill-opacity:1;fill-rule:nonzero;stroke:none"
             d="M 0,0 C 1.833,3.362 9.019,9.371 8.475,15.549 7.931,21.727 -0.79,26.212 0.832,38.218 -19.991,19.084 -1.763,10.18 0,0" /></g><g
           transform="translate(294.096,149.3937)"
           id="g68"><path
             id="path70"
             style="fill:#41781e;fill-opacity:1;fill-rule:nonzero;stroke:none"
             d="M 0,0 C 7.082,6.071 21.961,9.729 11.687,29.122 10.29,21.355 3.469,20.113 0.34,15.623 -2.789,11.133 0.073,3.378 0,0" /></g><g
           transform="translate(293.2913,176.3615)"
           id="g72"><path
             id="path74"
             style="fill:#41781e;fill-opacity:1;fill-rule:nonzero;stroke:none"
             d="M 0,0 C 5.725,6.998 17.313,15.121 2.93,29.105 4.094,22.585 -1.113,19.471 -3.057,14.616 -4.999,9.761 -0.661,3.16 0,0" /></g><g
           transform="translate(286.0589,139.6818)"
           id="g76"><path
             id="path78"
             style="fill:#41781e;fill-opacity:1;fill-rule:nonzero;stroke:none"
             d="M 0,0 C -3.033,4.844 -10.578,6.099 -12.59,15.127 -23.354,-6.285 -6.669,-8.981 -0.447,-16.314 -0.351,-12.787 3.033,-4.845 0,0" /></g><g
           transform="translate(291.596,149.257)"
           id="g80"><path
             id="path82"
             style="fill:#41781e;fill-opacity:1;fill-rule:nonzero;stroke:none"
             d="M 0,0 C -0.698,3.306 0.679,11.456 -3.228,15.289 -7.134,19.122 -13.806,19.44 -16.616,26.814 -23.122,5.853 -7.665,5.223 0,0" /></g><g
           transform="translate(272.2679,97.4396)"
           id="g84"><path
             id="path86"
             style="fill:#41781e;fill-opacity:1;fill-rule:nonzero;stroke:none"
             d="M 0,0 C 0.965,3.55 6.347,10.765 4.465,16.418 2.583,22.071 -5.696,24.744 -6.209,35.395 -21.88,14.545 -4.193,9.045 0,0" /></g><g
           transform="translate(176.6516,37.5314)"
           id="g88"><path
             id="path90"
             style="fill:#41781e;fill-opacity:1;fill-rule:nonzero;stroke:none"
             d="M 0,0 C 10.414,-4.783 9.039,-30.897 41.711,-17.833 25.856,-12.937 25.845,0.384 19.524,3.229 13.205,6.074 4.221,0.698 0,0" /></g><g
           transform="translate(221.7981,49.8185)"
           id="g92"><path
             id="path94"
             style="fill:#41781e;fill-opacity:1;fill-rule:nonzero;stroke:none"
             d="m 0,0 c -6.559,1.31 -13.845,-5.688 -17.663,-7.258 10.75,-2.617 16.06,-26.11 42.433,-6.537 C 9.7,-13.084 6.559,-1.309 0,0" /></g><g
           transform="translate(303.6927,117.4777)"
           id="g96"><path
             id="path98"
             style="fill:#41781e;fill-opacity:1;fill-rule:nonzero;stroke:none"
             d="m 0,0 c -7.716,-7.361 -15.653,-3.309 -20.915,-6.106 -5.261,-2.797 -6.337,-11.734 -8.086,-14.97 C -19.567,-17.859 -3.026,-25.907 0,0" /></g><g
           transform="translate(254.4368,72.255)"
           id="g100"><path
             id="path102"
             style="fill:#41781e;fill-opacity:1;fill-rule:nonzero;stroke:none"
             d="M 0,0 C 10.219,1.413 24.72,-12.628 35.734,13.417 24.973,7.851 17.793,14.776 11.792,13.211 5.791,11.646 2.55,2.856 0,0" /></g><g
           transform="translate(245.4348,64.6476)"
           id="g104"><path
             id="path106"
             style="fill:#41781e;fill-opacity:1;fill-rule:nonzero;stroke:none"
             d="M 0,0 C -6.442,-0.178 -11.786,-8.314 -15.037,-10.608 -4.368,-11.152 6.314,-30.489 25.295,-6.568 12,-9.396 6.442,0.178 0,0" /></g><g
           transform="translate(74.0945,132.8361)"
           id="g108"><path
             id="path110"
             style="fill:#41781e;fill-opacity:1;fill-rule:nonzero;stroke:none"
             d="m 0,0 c -0.513,-10.652 -8.792,-13.325 -10.674,-18.979 -1.882,-5.653 3.5,-12.868 4.465,-16.417 C -2.016,-26.352 15.67,-20.852 0,0" /></g><g
           transform="translate(87.0672,112.0695)"
           id="g112"><path
             id="path114"
             style="fill:#41781e;fill-opacity:1;fill-rule:nonzero;stroke:none"
             d="M 0,0 C 1.622,-12.007 -7.099,-16.491 -7.643,-22.669 -8.187,-28.847 -1.001,-34.855 0.832,-38.218 2.595,-28.038 20.823,-19.134 0,0" /></g><g
           transform="translate(66.6844,154.8087)"
           id="g116"><path
             id="path118"
             style="fill:#41781e;fill-opacity:1;fill-rule:nonzero;stroke:none"
             d="m 0,0 c -2.012,-9.028 -9.557,-10.283 -12.59,-15.127 -3.034,-4.845 0.351,-12.787 0.447,-16.314 C -5.921,-24.108 10.763,-21.412 0,0" /></g><g
           transform="translate(65.1731,176.0709)"
           id="g120"><path
             id="path122"
             style="fill:#41781e;fill-opacity:1;fill-rule:nonzero;stroke:none"
             d="m 0,0 c -2.81,-7.374 -9.482,-7.692 -13.389,-11.525 -3.905,-3.833 -2.528,-11.983 -3.226,-15.289 C -8.951,-21.591 6.506,-20.96 0,0" /></g><g
           transform="translate(69.2146,227.4005)"
           id="g124"><path
             id="path126"
             style="fill:#41781e;fill-opacity:1;fill-rule:nonzero;stroke:none"
             d="M 0,0 C 8.166,-1.604 20.92,-3.708 22.076,13.108 19.961,8.954 15.186,9.073 10.467,8.596 5.748,8.119 2.263,1.858 0,0" /></g><g
           transform="translate(201.2464,63.3927)"
           id="g128"><path
             id="path130"
             style="fill:#41781e;fill-opacity:1;fill-rule:nonzero;stroke:none"
             d="m 0,0 c 0.234,-6.763 3.271,-13.309 1.53,-18.341 3.362,2.398 13.163,4.841 15.547,11.089 0.799,2.097 0.404,4.497 -0.192,7.252 z" /></g><g
           transform="translate(195.5452,63.3927)"
           id="g132"><path
             id="path134"
             style="fill:#41781e;fill-opacity:1;fill-rule:nonzero;stroke:none"
             d="m 0,0 h -16.461 c -2.998,-8.183 0.387,-17.578 -3.232,-23.069 3.952,1.641 14.419,1.832 18.277,7.59 C 0.904,-12.017 -0.705,-6.54 0,0" /></g><g
           transform="translate(138.9065,63.3927)"
           id="g136"><path
             id="path138"
             style="fill:#41781e;fill-opacity:1;fill-rule:nonzero;stroke:none"
             d="m 0,0 h -16.885 c -0.596,-2.755 -0.991,-5.155 -0.192,-7.252 2.383,-6.248 12.185,-8.691 15.547,-11.089 C -3.271,-13.309 -0.234,-6.763 0,0" /></g><g
           transform="translate(161.0686,63.3927)"
           id="g140"><path
             id="path142"
             style="fill:#41781e;fill-opacity:1;fill-rule:nonzero;stroke:none"
             d="m 0,0 h -16.461 c 0.705,-6.54 -0.904,-12.017 1.416,-15.479 3.858,-5.758 14.325,-5.949 18.277,-7.59 C -0.386,-17.578 2.998,-8.183 0,0" /></g><g
           transform="translate(118.3553,49.8185)"
           id="g144"><path
             id="path146"
             style="fill:#41781e;fill-opacity:1;fill-rule:nonzero;stroke:none"
             d="M 0,0 C -6.559,-1.309 -9.701,-13.084 -24.77,-13.795 1.602,-33.368 6.913,-9.875 17.663,-7.258 13.844,-5.688 6.558,1.31 0,0" /></g><g
           transform="translate(143.9768,40.7609)"
           id="g148"><path
             id="path150"
             style="fill:#41781e;fill-opacity:1;fill-rule:nonzero;stroke:none"
             d="M 0,0 C -6.32,-2.846 -6.332,-16.166 -22.186,-21.062 10.485,-34.127 9.111,-8.013 19.525,-3.229 15.303,-2.531 6.32,2.845 0,0" /></g><g
           transform="translate(109.7552,54.0392)"
           id="g152"><path
             id="path154"
             style="fill:#41781e;fill-opacity:1;fill-rule:nonzero;stroke:none"
             d="m 0,0 c -3.251,2.294 -8.594,10.432 -15.037,10.608 -6.442,0.178 -12,-9.395 -25.295,-6.568 C -21.352,-19.881 -10.668,-0.544 0,0" /></g><g
           transform="translate(68.7825,197.733)"
           id="g156"><path
             id="path158"
             style="fill:#41781e;fill-opacity:1;fill-rule:nonzero;stroke:none"
             d="m 0,0 c -2.973,-5.919 -8.806,-5.773 -13.27,-8.498 -4.463,-2.725 -4.941,-10.609 -6.304,-13.536 C -11.125,-19.101 3.146,-19.813 0,0" /></g><g
           transform="translate(59.9548,216.5333)"
           id="g160"><path
             id="path162"
             style="fill:#41781e;fill-opacity:1;fill-rule:nonzero;stroke:none"
             d="M 0,0 C -0.783,4.925 -3.962,9.211 -0.935,13.815 -17.477,5.881 -10.267,-5.314 -5.926,-12.946 -4.645,-10.147 0.783,-4.924 0,0" /></g><g
           transform="translate(56.1223,202.4699)"
           id="g164"><path
             id="path166"
             style="fill:#41781e;fill-opacity:1;fill-rule:nonzero;stroke:none"
             d="M 0,0 C 8.604,0.622 21.935,-0.912 21.287,17.423 18.613,12.605 13.444,12.849 8.719,11.257 3.993,9.666 1.885,2.434 0,0" /></g><g
           transform="translate(73.9241,85.466)"
           id="g168"><path
             id="path170"
             style="fill:#41781e;fill-opacity:1;fill-rule:nonzero;stroke:none"
             d="M 0,0 C -6.001,1.565 -13.181,-5.36 -23.943,0.206 -12.928,-25.839 1.574,-11.798 11.792,-13.211 9.243,-10.354 6,-1.565 0,0" /></g><g
           transform="translate(75.6931,239.651)"
           id="g172"><path
             id="path174"
             style="fill:#41781e;fill-opacity:1;fill-rule:nonzero;stroke:none"
             d="M 0,0 C 0.316,4.733 -0.631,9.445 3.449,11.701 -13.318,9.972 -11.171,-2.727 -8.234,-10.754 -6.454,-8.429 -0.315,-4.733 0,0" /></g><g
           transform="translate(57.3748,111.3712)"
           id="g176"><path
             id="path178"
             style="fill:#41781e;fill-opacity:1;fill-rule:nonzero;stroke:none"
             d="M 0,0 C -5.261,2.798 -13.198,-1.255 -20.915,6.106 -17.888,-19.801 -1.347,-11.753 8.086,-14.97 6.338,-11.733 5.261,-2.797 0,0" /></g><g
           transform="translate(52.009,122.924)"
           id="g180"><path
             id="path182"
             style="fill:#41781e;fill-opacity:1;fill-rule:nonzero;stroke:none"
             d="M 0,0 C -0.897,3.412 0.121,11.985 -4.151,15.783 -8.422,19.581 -16.218,18.356 -20.684,26.457 -25.002,2.885 -8.355,4.801 0,0" /></g><g
           transform="translate(45.7166,165.0167)"
           id="g184"><path
             id="path186"
             style="fill:#41781e;fill-opacity:1;fill-rule:nonzero;stroke:none"
             d="M 0,0 C -3.128,4.49 -9.949,5.732 -11.346,13.499 -21.621,-5.895 -6.741,-9.552 0.34,-15.623 0.267,-12.245 3.129,-4.49 0,0" /></g><g
           transform="translate(49.9177,190.9777)"
           id="g188"><path
             id="path190"
             style="fill:#41781e;fill-opacity:1;fill-rule:nonzero;stroke:none"
             d="M 0,0 C -1.943,4.855 -7.15,7.969 -5.986,14.489 -20.37,0.505 -8.781,-7.619 -3.056,-14.616 -2.395,-11.456 1.943,-4.855 0,0" /></g><g
           transform="translate(113.0432,63.3927)"
           id="g192"><path
             id="path194"
             style="fill:#41781e;fill-opacity:1;fill-rule:nonzero;stroke:none"
             d="m 0,0 h -10.004 c 2.98,-3.052 6.906,-5.432 8.538,-7.267 C -1.66,-4.949 -0.955,-2.53 0,0" /></g><g
           transform="translate(227.1096,63.3927)"
           id="g196"><path
             id="path198"
             style="fill:#41781e;fill-opacity:1;fill-rule:nonzero;stroke:none"
             d="M 0,0 C 0.955,-2.53 1.66,-4.949 1.466,-7.267 3.098,-5.432 7.024,-3.052 10.005,0 Z" /></g></g></g><g
       id="g200"><g
         clip-path="url(#clipPath206)"
         id="g202"><g
           transform="translate(163.4739,290.7003)"
           id="g208"><path
             id="path210"
             style="fill:#3e3e3e;fill-opacity:1;fill-rule:nonzero;stroke:none"
             d="m 0,0 1.125,-84.597 c 1.185,-0.927 2.358,-1.837 3.494,-2.71 1.182,-0.898 2.396,-1.807 3.622,-2.726 1.095,-0.82 2.198,-1.651 3.303,-2.487 l 0.99,92.075 c 3.296,2.005 5.497,5.63 5.497,9.77 0,6.311 -5.117,11.428 -11.428,11.428 C 0.291,20.753 -4.826,15.636 -4.826,9.325 -4.826,5.474 -2.919,2.07 0,0" /></g><g
           transform="translate(181.2561,250.3317)"
           id="g212"><path
             id="path214"
             style="fill:#3e3e3e;fill-opacity:1;fill-rule:nonzero;stroke:none"
             d="m 0,0 v 28.55 c 7.01,19.811 23.692,33.812 50.319,33.812 h 79.852 C 128.218,55.143 121.057,48.259 103.818,50.275 85.855,52.374 47.83,57.11 45.676,57.48 51.906,55.301 119.651,45.403 119.651,45.403 115.324,38.845 107.189,33.818 94.069,37.449 80.961,41.075 42.874,53.124 42.874,53.124 50.898,48.776 103.623,31.181 103.623,31.181 93.834,24.367 87.319,24.277 74.813,30.598 63.209,36.459 40.877,48.355 38.938,49.36 47.05,43.007 84.046,23.063 84.046,23.063 75.887,19.639 67.062,20.325 59.936,25.844 51.42,32.447 37.681,43.588 34.969,45.802 37.438,41.836 63.161,19.962 63.161,19.962 53.374,18.497 46.271,22.589 42.255,27.69 38.591,32.336 32.826,39.336 30.415,42.588 32.717,35.738 45.543,19.31 45.543,19.31 38.033,19.639 33.312,22.505 30.705,27.786 28.12,33.015 26.496,36.071 25.059,38.992 25.982,33.809 32,19.475 32,19.475 25.634,19.31 22.217,21.178 20.142,26.385 19.237,28.646 18.603,29.952 17.165,34.102 17.033,29.793 19.68,16.881 19.68,16.881 12.679,16.315 10.921,22.478 9.155,29.999 8.583,26.866 10.972,12.151 10.972,12.151 7.386,10.031 1.947,4.348 0,0" /></g><g
           transform="translate(158.8963,250.3317)"
           id="g216"><path
             id="path218"
             style="fill:#3e3e3e;fill-opacity:1;fill-rule:nonzero;stroke:none"
             d="m 0,0 v 28.55 c -7.009,19.811 -23.691,33.812 -50.319,33.812 h -79.851 c 1.953,-7.219 9.114,-14.103 26.353,-12.087 17.963,2.099 55.987,6.835 58.142,7.205 -6.23,-2.179 -73.975,-12.077 -73.975,-12.077 4.326,-6.558 12.462,-11.585 25.582,-7.954 13.108,3.626 51.195,15.675 51.195,15.675 -8.025,-4.348 -60.749,-21.943 -60.749,-21.943 9.789,-6.814 16.304,-6.904 28.809,-0.583 11.605,5.861 33.937,17.757 35.876,18.762 -8.112,-6.353 -45.108,-26.297 -45.108,-26.297 8.159,-3.424 16.984,-2.738 24.11,2.781 8.516,6.603 22.255,17.744 24.967,19.958 -2.469,-3.966 -28.193,-25.84 -28.193,-25.84 9.788,-1.465 16.891,2.627 20.907,7.728 3.664,4.646 9.428,11.646 11.84,14.898 -2.302,-6.85 -15.128,-23.278 -15.128,-23.278 7.509,0.329 12.23,3.195 14.837,8.476 2.585,5.229 4.21,8.285 5.647,11.206 -0.923,-5.183 -6.941,-19.517 -6.941,-19.517 6.366,-0.165 9.783,1.703 11.858,6.91 0.904,2.261 1.539,3.567 2.976,7.717 0.133,-4.309 -2.514,-17.221 -2.514,-17.221 7.001,-0.566 8.759,5.597 10.524,13.118 0.573,-3.133 -1.816,-17.848 -1.816,-17.848 C -7.385,10.031 -1.947,4.348 0,0" /></g><g
           transform="translate(170.0764,150.4445)"
           id="g220"><path
             id="path222"
             style="fill:#3e3e3e;fill-opacity:1;fill-rule:nonzero;stroke:none"
             d="m 0,0 4.385,-4.308 0.36,33.78 C 1.548,31.954 -1.947,34.4 -5.226,36.644 L -4.682,-4.6 Z" /></g><g
           transform="translate(174.2024,121.8576)"
           id="g224"><path
             id="path226"
             style="fill:#3e3e3e;fill-opacity:1;fill-rule:nonzero;stroke:none"
             d="m 0,0 -4.126,4.054 -4.363,-4.286 0.537,-40.733 h 7.515 z" /></g><g
           transform="translate(166.4807,63.3927)"
           id="g228"><path
             id="path230"
             style="fill:#3e3e3e;fill-opacity:1;fill-rule:nonzero;stroke:none"
             d="M 0,0 0.474,-35.961 H 6.716 L 7.099,0 Z" /></g></g></g><g
       id="g232"><g
         clip-path="url(#clipPath238)"
         id="g234"><g
           transform="translate(129.0388,219.3698)"
           id="g240"><path
             id="path242"
             style="fill:#818181;fill-opacity:1;fill-rule:nonzero;stroke:none"
             d="m 0,0 c 3.256,-4.119 6.794,-7.152 10.195,-10.221 6.836,-6.04 13.911,-11.272 21.108,-16.294 7.283,-5.043 14.317,-9.5 20.421,-14.972 2.982,-2.679 5.816,-5.536 7.447,-8.49 1.637,-2.978 1.84,-5.538 0.401,-8.763 -1.436,-3.18 -4.129,-6.429 -6.907,-9.575 l -5.234,-5.724 -0.029,-1.138 3.99,-3.921 6.297,5.988 c 3.13,3.124 6.395,6.317 8.92,10.862 1.228,2.263 2.17,5.041 2.233,7.978 0.091,2.943 -0.692,5.779 -1.798,8.175 -2.286,4.796 -5.464,8.375 -8.715,11.633 -6.516,6.417 -13.912,11.624 -20.627,16.726 -6.75,5.189 -13.439,10.497 -19.233,16.288 -2.867,2.873 -5.367,6.117 -6.985,9.157 -0.779,1.498 -1.308,2.967 -1.43,3.925 C 9.503,18.43 27.385,22.817 24.841,28.79 23.462,32.361 14.401,31.792 9.612,30.381 7.213,29.66 4.884,28.469 2.504,26.776 0.185,25.073 -2.354,22.62 -3.896,18.915 -5.444,15.213 -5.355,10.796 -4.233,7.681 -3.204,4.458 -1.601,2.097 0,0" /></g><g
           transform="translate(181.2649,193.549)"
           id="g244"><path
             id="path246"
             style="fill:#818181;fill-opacity:1;fill-rule:nonzero;stroke:none"
             d="m 0,0 c 7.196,5.022 13.28,9.56 20.116,15.6 3.401,3.069 6.94,6.102 10.196,10.221 1.6,2.096 3.204,4.458 4.233,7.681 1.121,3.115 1.21,7.532 -0.337,11.234 -1.542,3.704 -4.082,6.158 -6.4,7.861 -2.381,1.693 -4.709,2.883 -7.109,3.605 C 15.91,57.613 6.849,58.182 5.471,54.61 2.926,48.638 20.809,44.251 20.258,37.455 20.135,36.497 19.606,35.028 18.827,33.53 17.21,30.49 14.71,27.246 11.843,24.373 6.727,19.259 1.22,14.761 -4.719,10.15 l -0.13,-6.39 z" /></g><g
           transform="translate(158.3196,104.5919)"
           id="g248"><path
             id="path250"
             style="fill:#818181;fill-opacity:1;fill-rule:nonzero;stroke:none"
             d="M 0,0 C 2.101,-2.521 4.326,-4.278 6.916,-5.99 L 6.871,-3.811 C 4.929,-2.119 3.413,-0.531 2.057,1.514 0.215,4.129 -0.355,7.094 0.218,9.983 L -3.125,6.698 C -3.11,6.604 -3.101,6.51 -3.083,6.416 -2.652,3.979 -1.45,1.783 0,0" /></g><g
           transform="translate(151.2019,146.2599)"
           id="g252"><path
             id="path254"
             style="fill:#818181;fill-opacity:1;fill-rule:nonzero;stroke:none"
             d="m 0,0 7.428,-7.061 4.445,4.367 -6.843,7.489 c -2.78,3.145 -5.474,6.394 -6.91,9.575 -1.439,3.225 -1.233,5.785 0.401,8.763 1.628,2.953 4.463,5.811 7.449,8.49 1.873,1.683 3.855,3.252 5.884,4.784 l -0.117,5.386 C 10.448,42.674 8.192,44.357 6.879,45.261 3.996,42.951 2.054,41.297 -0.637,38.648 -3.888,35.39 -7.07,31.811 -9.355,27.015 c -1.102,-2.396 -1.889,-5.232 -1.796,-8.175 0.065,-2.937 1.005,-5.715 2.234,-7.978 C -6.394,6.316 -3.129,3.124 0,0" /></g><g
           transform="translate(176.4241,118.1144)"
           id="g256"><path
             id="path258"
             style="fill:#818181;fill-opacity:1;fill-rule:nonzero;stroke:none"
             d="m 0,0 c 1.569,-3.608 1.277,-7.543 -1.084,-10.899 -0.293,-0.442 -0.277,-0.425 -0.43,-0.672 l -0.047,-3.432 c 0.908,0.757 1.58,1.448 2.532,2.59 1.446,1.783 2.654,3.978 3.082,6.417 0.217,1.122 0.261,2.266 0.184,3.393 L -0.592,2.143 -0.614,1.356 C -0.393,0.909 -0.187,0.457 0,0" /></g></g></g><g
       transform="translate(170.0764,129.4171)"
       id="g260"><path
         id="path262"
         style="fill:#3e3e3e;fill-opacity:1;fill-rule:nonzero;stroke:none"
         d="M 0,0 51.935,-51.024 H -51.935 Z M 0,17.522 -82.494,-63.524 H 82.494 Z" /></g></g></svg>