<?xml version="1.0" standalone="no"?>
<!DOCTYPE svg PUBLIC "-//W3C//DTD SVG 20010904//EN"
 "http://www.w3.org/TR/2001/REC-SVG-20010904/DTD/svg10.dtd">
<svg version="1.0" xmlns="http://www.w3.org/2000/svg"
 width="190.000000pt" height="190.000000pt" viewBox="0 0 190.000000 190.000000"
 preserveAspectRatio="xMidYMid meet">
<metadata>
Created by potrace 1.15, written by Peter Selinger 2001-2017
</metadata>
<g transform="translate(0.000000,190.000000) scale(0.100000,-0.100000)"
fill="#000000" stroke="none">
<path d="M150 1777 c0 -28 59 -67 103 -68 23 -1 33 -3 22 -6 -11 -2 -30 -6
-42 -8 -47 -11 18 -64 79 -66 30 0 31 -1 11 -9 -13 -5 -23 -12 -23 -14 0 -14
67 -37 96 -34 18 2 30 0 27 -5 -15 -24 61 -36 99 -16 15 8 19 8 14 0 -13 -20
58 -16 90 4 20 13 21 12 16 -7 -5 -21 2 -21 56 -1 6 3 12 0 12 -7 0 -12 15
-10 53 5 12 5 17 2 17 -10 0 -13 6 -16 25 -13 19 4 25 1 25 -11 0 -10 16 -32
35 -51 l35 -34 0 87 c0 67 -5 97 -19 125 -24 47 -73 93 -131 123 -44 23 -53
24 -322 27 -240 3 -278 1 -278 -11z"/>
<path d="M1215 1776 c-84 -26 -130 -63 -174 -136 -17 -28 -21 -51 -21 -122 0
-49 2 -88 5 -88 15 0 64 68 65 90 0 19 3 21 12 12 19 -19 38 -14 38 9 0 19 1
19 22 5 32 -23 52 -21 45 5 -5 19 -4 19 11 6 38 -32 85 -31 60 1 -11 15 -11
15 4 4 34 -27 118 -37 103 -12 -3 5 10 3 29 -2 40 -12 90 -3 83 15 -3 9 5 12
28 9 29 -3 95 20 95 34 0 2 -10 9 -22 14 -20 8 -19 9 12 9 36 1 100 33 100 51
0 5 -12 12 -27 16 -47 10 -49 12 -11 13 24 1 47 10 67 27 63 52 55 54 -226 53
-179 0 -270 -4 -298 -13z"/>
<path d="M910 1760 c-24 -24 -26 -59 -5 -86 12 -15 14 -64 15 -256 0 -131 -4
-238 -8 -238 -15 0 -122 118 -122 133 0 9 18 30 40 47 22 17 40 40 40 51 0 16
-7 19 -46 19 -87 0 -151 -67 -127 -131 7 -18 8 -29 1 -29 -5 0 -7 -9 -3 -20 6
-18 3 -19 -26 -13 -31 6 -32 5 -25 -22 6 -24 5 -27 -13 -22 -23 6 -49 -17 -31
-28 18 -11 11 -25 -15 -25 -25 0 -35 -23 -15 -35 17 -10 11 -25 -9 -25 -29 0
-36 -18 -15 -41 16 -18 16 -19 -4 -19 -29 0 -37 -18 -17 -40 15 -17 15 -19 -4
-25 -27 -8 -27 -35 -1 -42 26 -7 26 -19 0 -26 -27 -7 -25 -33 3 -41 21 -6 21
-7 3 -21 -23 -18 -14 -45 15 -45 21 0 21 -1 5 -19 -21 -23 -14 -41 15 -41 21
0 26 -16 7 -22 -21 -7 0 -41 22 -35 21 5 29 -17 10 -28 -8 -5 -7 -11 1 -21 8
-10 16 -11 32 -3 18 10 19 9 14 -12 -3 -13 -2 -28 4 -35 7 -9 -14 -35 -76 -95
-47 -46 -84 -88 -81 -95 5 -14 -61 -44 -97 -44 -20 -1 -19 -4 15 -35 50 -46
82 -49 160 -13 44 21 75 59 63 79 -4 5 6 9 22 9 26 0 28 -3 28 -40 1 -28 -3
-40 -13 -40 -8 0 -33 -16 -55 -36 -23 -19 -54 -38 -69 -41 -40 -8 -35 -18 23
-42 65 -28 90 -22 156 37 51 45 53 49 55 104 2 44 7 58 18 58 12 0 14 -11 12
-49 -3 -40 0 -51 17 -63 22 -15 22 -15 -6 -21 -19 -4 -38 -22 -58 -51 -16 -25
-42 -51 -57 -57 -39 -16 -35 -25 17 -38 80 -20 113 -3 174 89 l36 55 3 -43 c2
-33 7 -42 21 -42 16 0 19 13 25 102 5 77 3 104 -6 110 -8 5 -2 8 17 8 17 0 25
-4 19 -8 -6 -4 -14 -37 -16 -75 l-6 -67 47 -62 c53 -71 82 -84 154 -67 26 6
47 14 47 17 -1 4 -15 16 -33 27 -18 11 -43 37 -57 58 -15 25 -34 40 -52 44
-28 6 -29 6 -7 21 17 12 20 23 17 63 -2 39 0 49 13 49 8 0 16 -8 16 -17 -1
-84 3 -95 46 -135 78 -73 109 -80 185 -40 40 20 40 29 3 37 -16 3 -47 22 -69
41 -22 18 -46 34 -54 34 -9 0 -13 13 -13 40 0 37 2 40 28 40 16 0 26 -4 22 -9
-24 -39 109 -117 169 -100 17 5 44 22 61 39 28 29 29 30 8 30 -34 0 -104 31
-97 42 4 6 -33 50 -81 98 -53 53 -83 90 -76 94 6 4 8 18 5 33 -6 23 -5 24 14
14 25 -13 46 6 32 29 -15 23 -12 29 10 23 24 -6 37 21 20 42 -10 12 -9 15 8
15 30 0 37 18 16 41 -16 18 -16 19 5 19 29 0 38 27 15 45 -18 14 -18 15 4 21
28 8 28 30 0 45 l-22 12 22 8 c28 11 28 36 0 45 -21 6 -21 7 -4 20 23 17 14
44 -15 44 -21 0 -21 1 -6 18 24 26 21 42 -8 42 -25 0 -33 14 -15 25 20 12 10
35 -15 35 -22 0 -24 3 -16 18 14 26 -5 45 -32 31 -17 -10 -18 -8 -12 22 7 31
7 32 -23 26 l-30 -6 5 65 c5 64 4 66 -31 98 -36 35 -87 49 -125 34 -32 -11
-25 -32 19 -63 58 -40 54 -64 -22 -137 l-63 -61 -3 243 c-2 206 0 246 13 260
37 41 2 110 -55 110 -17 0 -39 -9 -50 -20z m-129 -719 c26 -22 26 -22 10 -67
l-16 -44 -82 0 c-81 0 -83 1 -83 24 0 31 25 100 51 143 l22 35 36 -35 c20 -19
48 -44 62 -56z m504 4 c13 -27 25 -65 29 -82 l6 -33 -99 0 -99 0 -5 38 c-4 34
0 41 57 100 69 71 68 71 111 -23z m-519 -295 l-81 -78 -23 34 c-27 41 -52 107
-52 140 0 23 3 23 98 26 91 3 98 2 118 -20 l21 -24 -81 -78z m547 87 c-6 -36
-44 -123 -64 -150 -13 -16 -21 -10 -98 67 -80 80 -84 86 -69 103 14 16 31 18
127 15 l110 -3 -6 -32z"/>
<path d="M298 1301 c-35 -28 -42 -53 -28 -96 13 -40 35 -55 80 -55 37 0 90 47
90 79 0 25 3 25 -50 6 -24 -8 -45 -13 -47 -11 -3 2 -7 25 -11 51 l-7 47 -27
-21z"/>
<path d="M1590 1278 c0 -54 -11 -62 -55 -44 -52 22 -58 20 -50 -11 9 -39 33
-62 71 -69 45 -8 72 2 89 36 21 40 19 72 -5 98 -30 32 -50 28 -50 -10z"/>
<path d="M216 1148 c-23 -33 -20 -82 8 -115 27 -32 55 -38 103 -22 41 13 63
44 63 86 0 30 -14 45 -22 24 -1 -4 -21 -17 -42 -28 l-40 -20 -18 35 c-10 20
-18 42 -18 49 0 20 -17 15 -34 -9z"/>
<path d="M1658 1122 l-22 -48 -38 18 c-20 10 -40 22 -43 28 -22 36 -36 -32
-14 -72 12 -22 66 -48 103 -48 25 0 69 43 81 80 7 21 -21 90 -36 90 -5 0 -19
-22 -31 -48z"/>
<path d="M170 995 c-17 -44 -11 -72 21 -104 43 -43 74 -49 125 -22 55 29 79
82 55 120 -8 12 -15 9 -43 -12 -18 -15 -41 -35 -50 -44 -11 -10 -18 -12 -18
-5 0 7 -18 30 -40 52 l-40 40 -10 -25z"/>
<path d="M1700 979 c-19 -21 -36 -43 -38 -48 -2 -6 -11 -3 -20 5 -49 42 -84
66 -89 60 -4 -4 -7 -22 -7 -41 0 -39 29 -77 75 -95 37 -16 69 -7 108 29 34 32
42 83 19 113 -12 15 -17 12 -48 -23z"/>
<path d="M330 838 c-19 -22 -38 -48 -42 -57 -4 -9 -7 -11 -7 -3 -1 7 -21 21
-45 32 -24 10 -47 23 -50 29 -14 22 -26 10 -26 -27 0 -21 7 -47 15 -59 17 -24
90 -55 118 -50 28 5 87 56 98 84 10 26 -5 94 -19 92 -4 0 -23 -19 -42 -41z"/>
<path d="M1536 864 c-3 -9 -6 -33 -6 -54 0 -33 6 -44 42 -74 47 -41 66 -43
125 -17 48 22 63 45 63 95 0 42 -3 43 -37 16 -14 -11 -32 -20 -39 -20 -7 0
-19 -7 -28 -15 -14 -14 -19 -12 -53 26 -21 23 -39 45 -41 50 -6 14 -19 10 -26
-7z"/>
<path d="M396 730 c-9 -19 -26 -48 -39 -65 -20 -28 -25 -29 -62 -22 -22 5 -53
12 -69 17 -16 6 -31 8 -33 7 -7 -7 22 -79 38 -93 9 -8 43 -19 76 -23 l58 -8
43 42 c37 37 42 48 42 88 0 29 -7 53 -19 68 l-19 24 -16 -35z"/>
<path d="M1485 730 c-28 -54 -20 -95 28 -143 l42 -44 57 6 c65 8 92 27 109 78
13 42 11 45 -27 33 -16 -5 -47 -12 -69 -17 -37 -7 -42 -6 -62 22 -13 17 -30
45 -38 63 -8 17 -17 32 -20 32 -2 0 -11 -13 -20 -30z"/>
<path d="M480 620 c0 -11 -9 -38 -20 -60 -11 -22 -20 -47 -20 -57 0 -16 -10
-18 -85 -18 -47 0 -85 -1 -85 -4 0 -16 45 -70 66 -80 31 -14 120 -6 145 12 25
19 69 101 69 129 0 27 -37 89 -57 96 -8 2 -13 -5 -13 -18z"/>
<path d="M1395 603 c-14 -21 -25 -48 -25 -61 0 -26 46 -110 70 -129 24 -18
113 -26 144 -12 22 10 66 64 66 81 0 2 -38 4 -85 3 -81 0 -85 1 -85 22 0 13
-9 37 -20 55 -11 18 -20 43 -20 56 0 32 -16 27 -45 -15z"/>
</g>
</svg>
